<?xml version="1.0" standalone="no"?>
<!DOCTYPE svg PUBLIC "-//W3C//DTD SVG 20010904//EN"
 "http://www.w3.org/TR/2001/REC-SVG-20010904/DTD/svg10.dtd">
<svg version="1.0" xmlns="http://www.w3.org/2000/svg"
 width="1024.000000pt" height="1024.000000pt" viewBox="0 0 1024.000000 1024.000000"
 preserveAspectRatio="xMidYMid meet">
<metadata>
Created by potrace 1.16, written by Peter Selinger 2001-2019
</metadata>
<g transform="translate(0.000000,1024.000000) scale(0.100000,-0.100000)"
fill="#000000" stroke="none">
<path d="M6490 9189 c-41 -11 -86 -17 -100 -14 -18 4 -21 3 -11 -4 12 -8 9
-11 -15 -17 -16 -4 -54 -18 -83 -31 -30 -13 -61 -21 -68 -18 -8 2 -11 1 -8 -4
6 -10 -33 -27 -50 -22 -5 1 -7 -1 -3 -5 11 -10 -51 -46 -65 -38 -7 4 -9 4 -5
-1 8 -8 -102 -92 -115 -87 -4 1 -6 -2 -5 -6 4 -12 -68 -72 -77 -64 -5 4 -5 2
-2 -4 4 -6 -2 -19 -12 -28 -15 -14 -20 -15 -24 -4 -2 7 -3 6 -2 -4 3 -20 -51
-89 -68 -85 -6 1 -11 -7 -12 -17 0 -11 -8 -20 -18 -22 -11 -1 -22 -6 -25 -10
-4 -4 1 -4 11 -1 13 5 17 3 14 -5 -2 -7 -10 -12 -16 -10 -7 1 -10 -2 -7 -6 3
-5 -15 -45 -39 -88 -25 -43 -45 -82 -45 -87 0 -4 -5 -5 -12 -1 -7 4 -8 3 -4
-4 4 -7 -2 -32 -12 -56 -11 -24 -23 -58 -27 -75 -4 -17 -11 -31 -16 -31 -6 0
-8 -4 -5 -9 7 -10 -25 -164 -35 -171 -9 -6 -7 -583 2 -590 3 -3 9 -45 12 -95
3 -49 3 -78 0 -62 -2 15 -9 27 -15 27 -14 0 -1 -48 17 -67 16 -15 12 -79 -8
-118 -16 -33 -49 -65 -60 -58 -6 3 -7 1 -3 -5 8 -14 -53 -84 -67 -75 -5 3 -7
2 -4 -4 6 -10 -69 -91 -79 -85 -3 2 -9 0 -12 -4 -4 -4 0 -4 8 0 8 4 -40 -47
-108 -113 -68 -66 -129 -119 -135 -117 -7 1 -8 1 -4 -2 5 -2 -8 -22 -29 -43
-20 -21 -42 -35 -47 -32 -6 3 -7 1 -3 -5 6 -10 -10 -27 -26 -27 -5 0 -8 -4 -9
-10 -1 -19 -31 -44 -47 -38 -13 4 -14 2 -4 -4 10 -8 10 -12 -2 -22 -8 -6 -16
-8 -18 -4 -3 4 -4 3 -2 -4 4 -17 -36 -48 -60 -46 -18 2 -18 1 -3 -5 15 -6 -1
-26 -92 -116 -69 -67 -115 -105 -122 -100 -7 4 -9 3 -6 -3 9 -15 -328 -347
-343 -338 -8 5 -11 4 -7 -2 8 -13 -37 -56 -48 -46 -4 5 -5 3 -2 -3 8 -14 -146
-167 -158 -157 -4 4 -5 3 -2 -3 8 -14 -26 -47 -38 -37 -4 5 -5 3 -2 -3 8 -14
-44 -64 -69 -68 -11 -2 -19 -8 -19 -15 0 -17 -56 -72 -67 -65 -5 3 -7 0 -6 -8
2 -7 -3 -12 -10 -10 -8 1 -11 -2 -8 -7 8 -12 -18 -33 -29 -23 -5 4 -5 2 -2 -4
8 -14 -17 -37 -27 -26 -4 4 -6 0 -4 -8 2 -8 -3 -14 -10 -12 -8 1 -11 -1 -8 -6
7 -12 -40 -56 -51 -49 -5 3 -15 2 -23 -4 -12 -7 -12 -9 3 -9 17 0 17 -1 3 -16
-9 -8 -21 -12 -27 -8 -7 4 -9 3 -6 -3 8 -12 -27 -46 -36 -36 -4 3 -7 -1 -7 -9
0 -17 -155 -170 -167 -166 -5 2 -8 0 -8 -4 0 -13 -48 -57 -57 -52 -5 3 -7 0
-6 -8 2 -7 -3 -12 -10 -10 -8 1 -11 -2 -8 -7 9 -14 -152 -157 -172 -153 -13 2
-14 1 -4 -6 10 -7 0 -21 -40 -57 -85 -77 -140 -91 -291 -75 -45 5 -127 14
-182 20 -412 45 -781 -36 -1066 -236 -42 -29 -80 -51 -83 -48 -3 2 -4 1 -2 -2
7 -10 -107 -103 -118 -97 -5 3 -6 1 -2 -5 8 -13 -73 -108 -88 -104 -6 2 -8 0
-4 -3 4 -4 -11 -34 -33 -67 -43 -63 -139 -253 -139 -276 0 -7 -4 -11 -9 -7 -5
3 -13 0 -17 -6 -4 -8 -3 -9 4 -5 7 4 12 1 12 -9 0 -9 -4 -14 -9 -11 -5 4 -7
-4 -3 -16 3 -14 1 -19 -6 -14 -8 4 -10 2 -6 -7 7 -20 -23 -161 -36 -165 -5 -2
-9 -18 -9 -35 l1 -32 8 30 c6 23 8 14 8 -35 0 -49 -2 -58 -8 -35 -8 30 -8 30
-9 -8 -1 -23 3 -36 9 -32 6 3 10 1 10 -4 0 -6 -6 -11 -12 -11 -9 0 -10 -3 -2
-8 6 -4 14 -43 18 -87 3 -44 9 -91 11 -105 4 -16 3 -19 -2 -9 -7 14 -10 15
-21 3 -7 -8 -8 -14 -3 -14 6 0 14 -12 18 -28 l7 -27 7 25 c7 23 7 24 8 3 1
-13 12 -52 26 -89 28 -74 29 -77 16 -70 -10 7 -9 -13 2 -31 4 -6 3 -13 -3 -15
-6 -2 -2 -8 9 -15 17 -10 18 -9 14 10 -3 12 11 -6 31 -41 39 -68 42 -77 24
-66 -8 4 -10 3 -5 -2 5 -5 13 -10 18 -10 22 -3 23 -5 11 -13 -10 -6 -9 -11 4
-22 16 -12 17 -12 10 1 -5 8 10 -5 32 -30 23 -25 41 -49 41 -55 0 -5 -6 -2
-13 8 -16 21 -23 22 -23 2 0 -8 4 -12 8 -9 4 2 10 0 14 -6 4 -6 11 -7 17 -4 5
4 33 -16 61 -43 29 -27 70 -65 92 -83 22 -19 39 -38 37 -43 -1 -5 2 -6 7 -2
13 7 117 -51 125 -70 3 -8 11 -15 18 -15 9 0 8 3 -2 10 -8 5 -10 10 -5 10 6 0
15 -4 20 -9 6 -5 27 -14 48 -21 20 -6 37 -16 37 -21 0 -6 4 -8 8 -5 8 4 82
-14 122 -30 18 -8 30 -9 195 -23 71 -6 155 -8 185 -4 50 6 54 5 41 -10 -11
-15 -11 -17 2 -17 12 0 16 -15 16 -77 1 -43 6 -111 11 -152 6 -41 9 -79 6 -85
-2 -6 -5 -1 -5 11 -1 12 -5 25 -11 28 -13 8 -12 5 1 -33 6 -18 15 -29 20 -26
5 3 9 -4 9 -15 0 -10 3 -27 7 -37 4 -12 3 -15 -5 -10 -15 9 -15 -14 -1 -34 9
-13 10 -12 5 3 -3 10 -2 16 3 13 11 -7 36 -97 33 -118 -2 -9 4 -30 13 -45 15
-27 16 -27 10 -3 -3 14 11 -6 32 -45 21 -38 50 -88 65 -109 15 -22 25 -43 22
-48 -3 -5 0 -7 8 -6 8 2 13 -6 12 -23 0 -15 5 -26 12 -26 7 0 10 5 7 11 -3 6
24 -18 60 -53 36 -36 63 -69 60 -74 -3 -6 -1 -7 4 -4 6 4 22 -2 34 -14 13 -11
19 -18 14 -15 -6 2 -17 1 -25 -5 -11 -6 -6 -8 16 -5 21 2 40 -5 60 -20 18 -15
23 -24 14 -24 -11 -1 -10 -4 4 -15 26 -20 42 -19 26 1 -12 13 -10 14 13 3 15
-7 24 -16 20 -22 -3 -6 -1 -7 6 -3 6 4 17 3 24 -2 7 -5 37 -20 67 -33 30 -13
61 -30 68 -39 8 -9 11 -9 6 -1 -5 9 -1 12 12 7 48 -14 152 -36 175 -36 15 0
32 -6 38 -14 12 -14 93 -27 85 -14 -3 5 -22 9 -42 10 -20 0 31 4 114 8 82 4
185 15 227 24 42 10 82 14 88 10 7 -4 9 -3 6 3 -4 6 12 16 36 22 78 23 207 90
302 155 51 36 96 62 100 58 4 -4 5 -2 3 4 -4 14 152 170 165 166 5 -2 7 4 4
12 -3 8 0 20 8 26 8 6 28 34 45 61 18 27 36 47 40 44 5 -3 12 0 16 6 4 8 3 9
-4 5 -7 -4 -12 -5 -12 -2 0 10 74 131 82 134 4 2 6 8 2 13 -3 5 -1 9 3 9 5 0
9 8 10 18 1 9 20 69 42 134 22 64 45 154 51 200 7 45 14 90 17 98 2 8 4 152 4
320 -1 226 3 318 13 355 7 28 18 49 23 48 6 -1 10 4 9 11 -1 18 133 168 145
160 5 -3 8 -2 7 3 -4 11 66 93 78 93 5 0 14 10 19 22 6 13 17 22 25 20 8 -2
12 0 7 4 -11 12 23 43 41 37 13 -4 14 -3 3 5 -10 7 -1 23 44 70 32 34 62 60
69 59 6 -1 10 4 8 12 -4 17 78 102 90 95 5 -3 7 -1 6 4 -4 12 59 82 72 82 6 0
10 6 10 13 0 19 85 99 96 90 5 -5 6 -4 2 1 -10 11 11 38 23 30 5 -3 8 0 7 7
-2 7 3 13 10 14 6 0 11 3 10 6 -5 12 34 49 45 42 5 -3 7 -2 4 4 -8 12 77 96
87 86 4 -5 6 -3 4 2 -4 15 53 75 65 68 6 -3 7 -2 4 4 -8 13 97 116 108 106 4
-5 5 -3 2 3 -8 14 36 57 48 47 4 -5 5 -3 2 3 -3 6 40 55 96 110 56 54 167 162
247 239 354 342 421 405 428 402 4 -1 8 3 10 8 7 20 35 44 45 38 5 -3 7 -1 4
4 -6 10 18 38 32 38 3 0 5 3 4 7 -4 11 114 108 122 100 5 -4 5 -2 2 4 -4 7 31
47 80 93 66 62 89 78 99 70 10 -8 12 -6 9 9 -4 25 98 127 117 116 7 -4 8 -3 4
4 -3 6 2 16 13 21 25 14 54 14 46 1 -4 -6 -11 -8 -16 -5 -5 3 -6 -1 -3 -9 3
-9 10 -16 16 -16 5 0 6 5 2 12 -5 8 -2 9 9 5 9 -3 19 -2 22 3 3 4 -1 11 -7 13
-7 3 -4 6 8 6 11 1 70 -15 130 -34 60 -20 139 -41 176 -47 54 -10 65 -15 56
-25 -6 -8 -8 -16 -4 -20 3 -3 6 -1 6 6 0 7 5 9 10 6 6 -3 10 -2 10 3 0 6 55 8
143 5 199 -7 398 28 570 101 21 9 43 14 49 10 6 -4 8 -3 5 3 -8 13 41 36 55
27 7 -4 8 -2 4 4 -4 7 -5 12 -2 12 2 0 12 3 22 7 12 4 15 3 10 -5 -11 -18 0
-14 15 5 12 14 12 16 0 8 -10 -6 -12 -4 -7 4 5 7 15 10 23 7 8 -3 11 -2 8 4
-3 5 7 16 23 24 32 16 179 134 201 159 7 9 17 14 22 11 5 -3 8 -2 7 3 -2 4 26
45 62 90 43 54 69 78 76 72 7 -5 11 -4 11 6 0 8 -4 12 -9 9 -17 -11 -7 14 17
40 13 14 24 30 24 34 0 4 8 24 17 45 12 27 20 34 26 25 6 -9 8 -7 6 7 -3 37 2
56 12 50 6 -4 7 1 3 11 -5 13 -3 15 7 9 9 -5 11 -4 6 3 -7 12 23 125 35 130 4
2 5 13 2 25 -3 14 -2 18 4 10 6 -8 9 0 9 25 1 69 17 187 28 201 8 11 8 13 -1
7 -15 -8 -15 -4 -4 46 5 22 5 36 0 32 -5 -3 -9 19 -9 48 -1 66 -22 183 -48
267 -11 35 -18 71 -15 80 4 14 3 14 -7 1 -10 -13 -11 -11 -7 8 3 14 1 20 -6
15 -7 -4 -8 0 -4 11 4 9 3 15 -2 12 -10 -7 -57 92 -53 112 2 8 -1 11 -6 8 -10
-6 -79 92 -74 106 1 5 -2 7 -6 6 -5 -2 -28 20 -51 47 -40 47 -140 145 -148
145 -11 0 -88 63 -88 72 0 6 -7 13 -15 15 -13 4 -13 3 0 -6 30 -21 4 -10 -78
32 -45 24 -80 46 -76 49 3 4 -2 5 -13 4 -10 -2 -42 5 -71 15 -70 24 -201 49
-266 50 -44 1 -47 2 -21 9 30 8 30 8 -7 9 -21 0 -38 -3 -38 -8 0 -5 -32 -11
-70 -13 -39 -2 -70 0 -70 5 0 4 21 7 47 7 57 0 53 9 -5 12 -39 1 -41 3 -27 18
8 9 15 21 15 26 0 5 -5 2 -10 -6 -8 -13 -10 -12 -10 3 0 9 5 17 12 17 7 0 6 5
-4 13 -11 8 -18 38 -22 105 -4 52 -20 144 -36 205 -15 62 -26 116 -23 121 4 5
1 6 -5 2 -11 -7 -16 7 -15 41 1 7 -3 11 -7 8 -5 -3 -11 3 -14 12 -3 10 -26 54
-51 97 -24 43 -42 83 -38 89 3 6 1 7 -5 3 -13 -8 -35 28 -24 39 4 5 2 5 -4 2
-15 -8 -45 29 -38 48 4 8 1 15 -6 15 -6 0 -8 -6 -4 -12 4 -7 -12 5 -34 26 -23
22 -38 44 -35 49 3 6 1 7 -4 4 -6 -4 -16 -1 -22 7 -7 8 -8 16 -4 18 4 3 3 4
-3 2 -14 -3 -74 44 -74 59 0 8 3 7 9 -2 5 -8 11 -9 15 -3 3 5 -1 12 -9 16 -8
3 -17 0 -21 -6 -5 -7 -12 -5 -21 7 -7 11 -13 15 -13 11 0 -4 -13 1 -29 10 -17
10 -28 21 -25 25 2 4 -1 11 -7 15 -8 4 -9 3 -5 -4 10 -16 3 -15 -39 5 -25 12
-32 19 -23 26 9 6 8 7 -4 3 -24 -7 -50 3 -41 17 3 6 1 7 -5 3 -7 -4 -44 4 -82
18 -39 15 -80 26 -91 26 -10 0 -19 4 -19 8 0 10 -21 12 -245 16 -162 3 -201 1
-265 -15z m430 -286 c254 -50 475 -227 584 -465 50 -109 67 -188 73 -333 7
-162 -8 -277 -52 -414 -19 -58 -32 -107 -30 -109 2 -3 26 4 52 16 82 35 233
71 345 84 328 35 617 -97 793 -361 103 -156 140 -296 132 -500 -8 -223 -69
-391 -202 -559 -108 -136 -289 -261 -458 -316 -238 -78 -554 -53 -816 65 -144
65 -201 59 -311 -37 -88 -77 -856 -802 -1110 -1048 -343 -333 -994 -1002
-1303 -1338 -238 -260 -230 -236 -234 -672 -4 -447 -24 -566 -123 -761 -113
-220 -273 -377 -485 -476 -133 -62 -189 -74 -360 -74 -129 0 -160 3 -225 23
-273 86 -470 297 -547 588 -23 89 -26 118 -26 279 0 143 4 204 21 294 12 63
20 117 17 119 -2 2 -33 -8 -70 -23 -145 -58 -207 -69 -390 -69 -192 -1 -251
11 -395 84 -265 133 -422 360 -449 649 -15 159 5 283 69 431 51 119 101 191
194 286 169 170 391 268 667 296 97 10 151 9 340 -7 315 -25 427 -29 476 -16
24 7 74 35 112 64 58 44 508 464 896 837 61 58 227 218 370 355 495 474 1189
1160 1247 1234 70 87 116 175 124 234 3 23 -5 119 -17 212 -32 230 -34 578 -5
700 42 175 132 345 254 476 202 219 525 316 842 252z"/>
</g>
</svg>
